<mxfile host="www.draw.io" modified="2020-01-06T07:23:01.287Z" agent="Mozilla/5.0 (Windows NT 6.1; Win64; x64) AppleWebKit/537.36 (KHTML, like Gecko) Chrome/79.0.3945.88 Safari/537.36" etag="KyFnanoS-utJYfN2LDlf" version="12.4.8" type="github">
  <diagram id="wpUHIhpQEB0SY6643-ao" name="Page-1">
    <mxGraphModel dx="1422" dy="802" grid="1" gridSize="10" guides="1" tooltips="1" connect="1" arrows="1" fold="1" page="1" pageScale="1" pageWidth="827" pageHeight="1169" math="0" shadow="0">
      <root>
        <mxCell id="0"/>
        <mxCell id="1" parent="0"/>
        <mxCell id="crV2h4AbfbPqcwOCRPLc-1" value="" style="rounded=0;whiteSpace=wrap;html=1;fontFamily=Lucida Console;fontSize=15;fillColor=#b0e3e6;strokeColor=#0e8088;align=center;" parent="1" vertex="1">
          <mxGeometry x="113" y="210" width="600" height="160" as="geometry"/>
        </mxCell>
        <mxCell id="azvohXoImWlfaY37DYU1-3" style="edgeStyle=orthogonalEdgeStyle;curved=1;rounded=0;orthogonalLoop=1;jettySize=auto;html=1;exitX=1;exitY=0.5;exitDx=0;exitDy=0;entryX=0;entryY=0.5;entryDx=0;entryDy=0;fillColor=#e51400;strokeColor=#B20000;" edge="1" parent="1" source="crV2h4AbfbPqcwOCRPLc-2" target="azvohXoImWlfaY37DYU1-1">
          <mxGeometry relative="1" as="geometry">
            <Array as="points">
              <mxPoint x="283" y="230"/>
              <mxPoint x="570" y="230"/>
            </Array>
          </mxGeometry>
        </mxCell>
        <mxCell id="azvohXoImWlfaY37DYU1-17" value="1.立刻发送给Ｂ" style="text;html=1;align=center;verticalAlign=middle;resizable=0;points=[];labelBackgroundColor=#ffffff;" vertex="1" connectable="0" parent="azvohXoImWlfaY37DYU1-3">
          <mxGeometry x="-0.3759" y="-3" relative="1" as="geometry">
            <mxPoint x="70" y="-3" as="offset"/>
          </mxGeometry>
        </mxCell>
        <mxCell id="crV2h4AbfbPqcwOCRPLc-2" value="appA" style="ellipse;whiteSpace=wrap;html=1;aspect=fixed;fontFamily=Lucida Console;fontSize=15;fillColor=#60a917;strokeColor=#2D7600;fontColor=#ffffff;" parent="1" vertex="1">
          <mxGeometry x="203" y="250" width="80" height="80" as="geometry"/>
        </mxCell>
        <mxCell id="crV2h4AbfbPqcwOCRPLc-4" value="" style="endArrow=classic;html=1;fontFamily=Lucida Console;fontSize=15;exitX=1;exitY=0.5;exitDx=0;exitDy=0;fillColor=#dae8fc;strokeColor=#6c8ebf;entryX=0;entryY=0.5;entryDx=0;entryDy=0;entryPerimeter=0;edgeStyle=orthogonalEdgeStyle;curved=1;gradientColor=#7ea6e0;" parent="1" source="crV2h4AbfbPqcwOCRPLc-2" edge="1" target="azvohXoImWlfaY37DYU1-1">
          <mxGeometry width="50" height="50" relative="1" as="geometry">
            <mxPoint x="153" y="440" as="sourcePoint"/>
            <mxPoint x="563" y="290" as="targetPoint"/>
          </mxGeometry>
        </mxCell>
        <mxCell id="azvohXoImWlfaY37DYU1-18" value="2.在将来的某个时候发送给Ｂ" style="text;html=1;align=center;verticalAlign=middle;resizable=0;points=[];labelBackgroundColor=#ffffff;" vertex="1" connectable="0" parent="crV2h4AbfbPqcwOCRPLc-4">
          <mxGeometry x="-0.5889" relative="1" as="geometry">
            <mxPoint x="78" as="offset"/>
          </mxGeometry>
        </mxCell>
        <mxCell id="crV2h4AbfbPqcwOCRPLc-5" value="" style="edgeStyle=elbowEdgeStyle;elbow=horizontal;endArrow=classic;html=1;fontFamily=Lucida Console;fontSize=15;exitX=0;exitY=0.5;exitDx=0;exitDy=0;" parent="1" source="crV2h4AbfbPqcwOCRPLc-2" target="crV2h4AbfbPqcwOCRPLc-1" edge="1">
          <mxGeometry width="50" height="50" relative="1" as="geometry">
            <mxPoint x="193" y="300" as="sourcePoint"/>
            <mxPoint x="203" y="390" as="targetPoint"/>
            <Array as="points">
              <mxPoint x="163" y="330"/>
              <mxPoint x="173" y="340"/>
              <mxPoint x="183" y="290"/>
            </Array>
          </mxGeometry>
        </mxCell>
        <mxCell id="azvohXoImWlfaY37DYU1-1" value="NotifyAgent" style="whiteSpace=wrap;html=1;aspect=fixed;fillColor=#ffe6cc;strokeColor=#d79b00;" vertex="1" parent="1">
          <mxGeometry x="570" y="250" width="80" height="80" as="geometry"/>
        </mxCell>
        <mxCell id="azvohXoImWlfaY37DYU1-16" style="edgeStyle=orthogonalEdgeStyle;curved=1;rounded=0;orthogonalLoop=1;jettySize=auto;html=1;exitX=1;exitY=0.5;exitDx=0;exitDy=0;entryX=0;entryY=0.5;entryDx=0;entryDy=0;gradientColor=#97d077;fillColor=#d5e8d4;strokeColor=#82b366;" edge="1" parent="1">
          <mxGeometry relative="1" as="geometry">
            <mxPoint x="283" y="290" as="sourcePoint"/>
            <mxPoint x="570" y="290" as="targetPoint"/>
            <Array as="points">
              <mxPoint x="283" y="340"/>
              <mxPoint x="570" y="340"/>
            </Array>
          </mxGeometry>
        </mxCell>
        <mxCell id="azvohXoImWlfaY37DYU1-19" value="3.在发送给Ｂ,时间未定，等待触发" style="text;html=1;align=center;verticalAlign=middle;resizable=0;points=[];labelBackgroundColor=#ffffff;" vertex="1" connectable="0" parent="azvohXoImWlfaY37DYU1-16">
          <mxGeometry x="-0.4935" y="12" relative="1" as="geometry">
            <mxPoint x="89" y="2" as="offset"/>
          </mxGeometry>
        </mxCell>
      </root>
    </mxGraphModel>
  </diagram>
</mxfile>
